<?xml version="1.0" encoding="UTF-8" standalone="no"?>
<svg
   xmlns:dc="http://purl.org/dc/elements/1.1/"
   xmlns:cc="http://creativecommons.org/ns#"
   xmlns:rdf="http://www.w3.org/1999/02/22-rdf-syntax-ns#"
   xmlns:svg="http://www.w3.org/2000/svg"
   xmlns="http://www.w3.org/2000/svg"
   xmlns:sodipodi="http://sodipodi.sourceforge.net/DTD/sodipodi-0.dtd"
   xmlns:inkscape="http://www.inkscape.org/namespaces/inkscape"
   width="220.0197pt"
   height="211.19118pt"
   viewBox="0 0 161.34778 154.87353"
   version="1.2"
   id="svg1227"
   sodipodi:docname="logo2.svg"
   inkscape:version="0.92.3 (2405546, 2018-03-11)">
  <metadata
     id="metadata1231">
    <rdf:RDF>
      <cc:Work
         rdf:about="">
        <dc:format>image/svg+xml</dc:format>
        <dc:type
           rdf:resource="http://purl.org/dc/dcmitype/StillImage" />
        <dc:title></dc:title>
      </cc:Work>
    </rdf:RDF>
  </metadata>
  <sodipodi:namedview
     pagecolor="#000000"
     bordercolor="#666666"
     borderopacity="1"
     objecttolerance="10"
     gridtolerance="10"
     guidetolerance="10"
     inkscape:pageopacity="0"
     inkscape:pageshadow="2"
     inkscape:window-width="1920"
     inkscape:window-height="951"
     id="namedview1229"
     showgrid="false"
     inkscape:zoom="1.251579"
     inkscape:cx="-0.4274411"
     inkscape:cy="73.192526"
     inkscape:window-x="0"
     inkscape:window-y="27"
     inkscape:window-maximized="1"
     inkscape:current-layer="surface635"
     fit-margin-top="-0.6"
     fit-margin-left="0"
     fit-margin-right="0"
     fit-margin-bottom="0"
     scale-x="0.55" />
  <defs
     id="defs182" />
  <g
     id="surface635"
     transform="translate(-234.41809,-350.08222)">
    <path
       style="fill:#eeeeee;fill-opacity:1;stroke:#eeeeee;stroke-width:0;stroke-miterlimit:4;stroke-dasharray:none;stroke-opacity:1"
       d="m 302.44538,406.86577 c -0.0198,-0.65701 -0.16519,15.94265 -1.16747,16.94491 -1.11938,1.11939 -1.42062,1.16748 -7.34019,1.16748 -6.98576,0 -8.26109,-0.32007 -9.30236,-2.33367 -0.95799,-1.85248 -0.97171,-7.25074 -0.0232,-9.24937 1.10872,-2.33648 2.33331,-2.82211 7.72783,-3.06438 l 4.87408,-0.21902 v -1.60231 -1.60164 h -4.21508 c -5.2001,0 -8.75734,0.64205 -10.5241,1.90014 -2.89907,2.0643 -4.29228,7.73432 -3.18715,12.97018 0.44611,2.11353 2.81381,4.98277 4.84048,5.86583 1.02026,0.44456 4.1369,0.63091 10.77479,0.64415 12.3145,0.0246 11.50465,0.64732 11.82209,-9.09237 l 0.23777,-7.29497 2.85311,8.21951 2.85312,8.21951 5.07266,0.01 v -0.0233 l 2.73078,-8.24529 c 2.24486,-6.46006 2.80238,-7.94225 3.0043,-7.94225 0.20192,0 0.36698,3.30498 0.36698,7.34407 0,7.04981 0.0424,7.3732 1.05699,8.08383 1.47881,1.0358 20.48444,1.09094 22.93608,0.0665 2.74529,-1.14703 4.05925,-4.37099 3.1529,-7.73688 -0.70836,-2.6307 -2.49033,-3.53174 -7.57859,-3.8313 -4.3048,-0.25345 -5.77666,-0.90906 -5.77666,-2.57336 0,-0.48257 0.42794,-1.30538 0.95103,-1.82842 0.84541,-0.84539 1.58492,-0.95105 6.65728,-0.95105 h 5.70689 v -1.95506 -1.95505 l -6.7768,0.18284 c -5.6126,0.15159 -7.03819,0.34013 -8.30157,1.09511 -1.80723,1.08003 -2.76042,3.098 -2.70712,5.73144 0.0814,4.02312 2.07427,5.44605 8.16073,5.82576 4.09488,0.25544 5.34508,0.82338 5.34508,2.43059 0,0.45441 -0.30385,1.24188 -0.67452,1.74959 -0.60012,0.82197 -1.39423,0.94067 -7.25167,1.08154 -7.47129,0.17974 -9.71421,-0.26262 -10.54155,-2.07844 -0.34513,-0.75747 -0.5537,-3.98493 -0.5537,-8.56389 v -7.3486 h -3.27825 c -2.68236,0 -3.33581,0.15114 -3.5987,0.83215 -0.17668,0.4577 -1.39739,3.93482 -2.71227,7.7272 -1.31488,3.79237 -2.57216,6.92332 -2.76535,7.27122 -0.0574,0.64472 -0.85411,-1.51506 -3.19748,-7.60896 l -2.82266,-7.98385 -3.41456,-0.13956 -3.41393,-0.14021 v -0.0401 c 0,-0.96769 0.003,0.13393 0,0.0401 z m -9.15182,5.21651 -1.13065,1.06216 c -0.62187,0.58423 -1.13065,1.23901 -1.13065,1.45499 0,0.21594 0.60517,0.39218 1.34451,0.39218 1.22891,0 1.32587,-0.12427 1.13065,-1.45435 z m -2.61407,0.0639 c -1.2111,0.0106 -2.19935,0.75207 -1.82001,1.36582 0.50303,0.81396 1.40566,0.62888 2.0623,-0.42253 0.50959,-0.81601 0.47517,-0.94944 -0.24229,-0.94329 z m 3.81192,0.56791 c -0.12268,0.011 -0.1305,0.24077 -0.1305,0.69842 0,0.52015 0.14285,1.0881 0.31722,1.26245 0.45284,0.45283 1.58484,0.39183 1.58484,-0.0853 0,-0.22101 -0.42793,-0.78905 -0.95103,-1.26246 -0.46039,-0.4166 -0.69786,-0.62404 -0.82053,-0.61313 z m -6.94091,1.18556 c -0.22027,0.0196 -0.39925,0.2427 -0.70941,0.68551 -0.5724,0.81723 -0.54941,1.06141 0.17574,1.86266 1.08447,1.19834 1.57513,1.16349 2.08234,-0.14795 0.3225,-0.83387 0.19147,-1.24517 -0.59311,-1.86266 -0.47409,-0.37311 -0.73529,-0.55713 -0.95556,-0.53756 z m 8.73639,1.58227 c -0.60112,0.01 -1.28064,0.6369 -1.56677,1.76899 -0.20659,0.81746 -0.0654,1.06992 0.59763,1.06992 1.65974,0 2.23782,-0.48618 2.00804,-1.68822 -0.15136,-0.7918 -0.57138,-1.15816 -1.0389,-1.15069 z m -4.90187,0.31788 c -0.7188,0.009 -1.08634,0.21235 -1.3361,0.67904 -0.68594,1.28167 -0.53541,1.75768 0.62669,1.98155 1.84417,0.3551 2.73401,0.34825 2.74072,-0.0207 0.004,-0.19613 0.1289,-0.81309 0.27846,-1.37034 0.23519,-0.87649 0.0377,-1.04049 -1.46534,-1.21594 -0.32636,-0.0381 -0.60483,-0.0564 -0.84443,-0.0537 z m -5.3231,1.38392 c -0.25514,-0.0235 -0.26037,0.24735 -0.26037,0.86317 0,0.6116 0.47969,1.44321 1.06991,1.85491 1.46463,1.0217 1.7835,0.97302 1.77996,-0.2733 -0.002,-0.68907 -0.50973,-1.35838 -1.42655,-1.8801 -0.61499,-0.34995 -0.96451,-0.54642 -1.16295,-0.56468 z m 10.56288,1.82971 c -1.06161,0.005 -3.18765,1.27449 -3.20783,2.28844 -0.01,0.45446 2.39559,-0.0919 3.20265,-0.72749 0.32692,-0.25749 0.59439,-0.7479 0.59439,-1.08995 0,-0.33476 -0.23536,-0.47298 -0.58921,-0.471 z m -6.47186,0.33597 c -0.41931,-0.0225 -0.54724,0.19131 -0.54724,0.73848 0,0.51001 0.14287,1.07 0.31723,1.24437 0.64066,0.64065 2.04111,0.29069 2.53589,-0.63382 0.38613,-0.72147 0.36155,-0.95331 -0.1021,-0.95815 -0.33614,-0.004 -1.09265,-0.13495 -1.68113,-0.29267 -0.21044,-0.0563 -0.38291,-0.0907 -0.52267,-0.0982 z m -2.6916,1.96927 c -0.22703,-0.0307 -0.0804,0.18704 0.46129,0.78564 1.03583,1.14455 1.27337,1.22109 0.91811,0.29526 -0.1428,-0.37207 -0.60577,-0.80944 -1.02857,-0.97171 -0.1579,-0.0606 -0.27515,-0.0989 -0.35083,-0.10919 z m 7.69748,0.8496 c -0.0926,0.003 -0.25184,0.0435 -0.48005,0.12406 -0.47909,0.16926 -1.2815,0.30817 -1.7832,0.30817 -0.50169,0 -0.91228,0.2367 -0.91228,0.52657 0,0.62775 2.37129,0.14397 3.09089,-0.63058 0.20764,-0.22353 0.23893,-0.33125 0.0846,-0.32822 z m -5.10214,0.19576 c -0.2244,-0.0126 -0.27056,0.1534 -0.13827,0.49814 0.30653,0.79881 0.48062,0.85332 0.84507,0.26361 0.14472,-0.23415 -0.0457,-0.54449 -0.42318,-0.68937 -0.11446,-0.0439 -0.20883,-0.0681 -0.28362,-0.0724 z"
       id="path2004"
       inkscape:connector-curvature="0"
       sodipodi:nodetypes="ccsccccccsccccsccccccssccccscscccccscscccscscscccccsccssscccccccscsccccccccccsccccccccccsccccsccsscsccccccccccccssccccccc" />
    <text
       xml:space="preserve"
       style="font-style:normal;font-variant:normal;font-weight:normal;font-stretch:normal;font-size:11.08245564px;line-height:1.25;font-family:'Bree Serif';-inkscape-font-specification:'Bree Serif, Normal';font-variant-ligatures:normal;font-variant-caps:normal;font-variant-numeric:normal;font-feature-settings:normal;text-align:start;letter-spacing:0px;word-spacing:0px;writing-mode:lr-tb;text-anchor:start;fill:#ffffff;fill-opacity:1;stroke:#eeeeee;stroke-width:0;stroke-miterlimit:4;stroke-dasharray:none;stroke-opacity:1"
       x="268.89539"
       y="447.47845"
       id="text2923"><tspan
         sodipodi:role="line"
         id="tspan2921"
         x="268.89539"
         y="447.47845"
         style="font-style:normal;font-variant:normal;font-weight:normal;font-stretch:normal;font-size:11.08245564px;font-family:'Bree Serif';-inkscape-font-specification:'Bree Serif, Normal';font-variant-ligatures:normal;font-variant-caps:normal;font-variant-numeric:normal;font-feature-settings:normal;text-align:start;writing-mode:lr-tb;text-anchor:start;fill:#ffffff;fill-opacity:1;stroke:#eeeeee;stroke-width:0;stroke-miterlimit:4;stroke-dasharray:none;stroke-opacity:1">CMSMUN ALIGANJ</tspan></text>
    <path
       inkscape:connector-curvature="0"
       id="path1927"
       d="m 341.65354,504.74084 c -1.65242,-0.12224 -1.94425,-0.19725 -1.22132,-0.3139 0.81362,-0.13129 0.74245,-0.15952 -0.4961,-0.19672 -6.09811,-0.18317 -12.24759,-1.42589 -16.22766,-3.27936 -1.42992,-0.6659 -6.01877,-4.43701 -6.28956,-5.16875 -0.16826,-0.45466 2.36268,-0.53791 4.85195,-0.15959 4.4269,0.67279 10.30442,2.80185 14.03014,5.08224 0.96348,0.58972 2.37876,1.31798 3.14507,1.61836 0.7663,0.30038 2.05615,0.90366 2.86634,1.34061 0.81019,0.43695 1.63458,0.79446 1.83198,0.79446 0.19741,0 0.35892,0.12213 0.35892,0.27141 0,0.14927 -0.15267,0.249 -0.33926,0.22163 -0.18659,-0.0274 -1.31631,-0.12205 -2.5105,-0.21039 z m -55.15486,-0.21107 c 0.71355,-0.0561 1.81274,-0.0554 2.44264,0.002 0.62991,0.0569 0.0461,0.10281 -1.29736,0.10198 -1.34345,-8.1e-4 -1.85883,-0.0474 -1.14528,-0.10349 z m 6.78018,-3.57546 c 7.27957,-3.66249 8.5612,-4.19196 12.00642,-4.96014 2.48377,-0.5538 6.43804,-0.7942 6.81775,-0.41448 0.31588,0.31587 -3.37168,3.91359 -4.91791,4.79811 -1.87786,1.07421 -6.54858,2.58003 -9.63488,3.10624 -1.41809,0.24178 -4.41033,0.50156 -6.64942,0.57728 l -4.07107,0.13767 z m -13.91275,-3.56973 c -1.11954,-0.13098 -2.82939,-0.43082 -3.79967,-0.66631 -2.47769,-0.60134 -8.23706,-2.33556 -8.48092,-2.55369 -0.26076,-0.23326 9.90321,-2.14631 13.33172,-2.50928 4.40444,-0.46629 9.71835,0.14122 12.78286,1.4614 l 1.22899,0.52945 -0.81422,0.67038 c -1.51233,1.24517 -3.02329,1.99671 -5.04438,2.50902 -2.48751,0.63053 -6.50673,0.87464 -9.20438,0.55903 z m 64.70471,0.0199 c -2.37977,-0.25092 -4.82561,-1.14328 -6.95582,-2.53784 -0.71317,-0.46688 -1.29666,-0.99998 -1.29666,-1.18466 0,-0.73546 6.93117,-2.25234 10.28109,-2.25001 3.19864,0.002 16.87661,2.27292 16.40428,2.72329 -0.284,0.2708 -6.71421,2.28346 -9.04405,2.8308 -2.23771,0.52569 -6.54907,0.71783 -9.38884,0.41841 z m -40.14256,-4.32598 c -1.93814,-0.46773 -4.22751,-2.33224 -6.77841,-5.52047 -1.80491,-2.25586 -3.66316,-5.45306 -3.35089,-5.76534 0.0949,-0.0949 0.56829,0.0321 1.05195,0.28217 0.48365,0.25011 2.41859,1.06335 4.29985,1.80721 4.56098,1.80343 6.42528,2.81808 7.94544,4.32434 1.12799,1.11766 2.93867,4.10295 2.93867,4.845 0,0.31894 -4.80888,0.34027 -6.10661,0.0271 z m 15.87719,-0.20636 c 0,-1.23226 3.17722,-5.12142 5.28413,-6.46817 0.75091,-0.47999 2.80297,-1.44108 4.56013,-2.13575 1.75716,-0.69468 3.88271,-1.56726 4.72345,-1.93908 0.84074,-0.37181 1.58111,-0.62353 1.64528,-0.55936 0.0642,0.0642 -0.12661,0.66662 -0.42395,1.33879 -1.4534,3.28565 -5.64655,8.1061 -8.09197,9.30253 -1.25262,0.61285 -1.93754,0.741 -4.58484,0.85783 -2.96097,0.13066 -3.11223,0.11138 -3.11223,-0.39679 z m -30.3843,-3.21754 c -3.87297,-1.85607 -6.89495,-5.84248 -8.5293,-11.25131 -0.83726,-2.77091 -1.5264,-5.97091 -1.28586,-5.97091 0.29895,0 8.56935,8.46046 10.0817,10.31339 1.79882,2.2039 2.65485,4.04627 2.87973,6.19777 0.17111,1.6371 0.16077,1.67297 -0.48212,1.67297 -0.36134,0 -1.56021,-0.43286 -2.66415,-0.96191 z m 47.6074,-0.28658 c 0.45344,-3.03899 1.6776,-5.22147 5.05975,-9.02074 3.29065,-3.69648 7.91386,-8.10972 8.05427,-7.68847 0.20508,0.61523 -0.52967,3.9089 -1.4541,6.51833 -2.22134,6.27028 -6.52132,10.8049 -10.78855,11.37725 l -1.0698,0.14349 z m -68.85663,-2.82746 c -4.5625,-0.55185 -9.06207,-2.70055 -15.25837,-7.28638 -2.32007,-1.71706 -2.3958,-1.80519 -1.62843,-1.89495 1.02765,-0.12022 6.46493,0.37908 11.52529,1.05835 3.82848,0.5139 4.02513,0.5729 7.24004,2.17228 3.46042,1.72151 6.97607,4.1439 6.8028,4.68734 -0.29954,0.93948 -5.31939,1.66999 -8.68133,1.26336 z m 88.5446,0.0851 c -1.53617,-0.16866 -3.52827,-0.90809 -3.52827,-1.30962 0,-0.92927 4.20255,-3.89989 7.29471,-5.15635 3.41169,-1.38629 5.93718,-1.85593 13.11981,-2.43974 6.26064,-0.50888 5.83077,-0.51974 5.24054,0.13245 -0.64625,0.71409 -6.54551,4.56418 -9.12135,5.95295 -4.43194,2.38948 -8.63255,3.30041 -13.00544,2.82031 z m -2.98063,-6.91474 c 0.008,-3.11033 0.43892,-6.4588 1.07549,-8.34845 0.32071,-0.95199 1.42057,-3.14643 2.44414,-4.87653 1.02358,-1.73011 2.40823,-4.17005 3.07701,-5.4221 l 1.21596,-2.27645 0.20067,2.14075 c 0.25432,2.71321 -0.0341,8.36011 -0.55144,10.79437 -0.21838,1.02767 -0.65852,2.4086 -0.97809,3.06874 -0.59181,1.22252 -4.30126,5.34834 -5.71132,6.35239 l -0.77725,0.55345 0.005,-1.98617 z m -79.59066,0.47955 c -1.85092,-1.50774 -3.8154,-4.06423 -4.91621,-6.39773 l -0.83063,-1.76077 -0.0844,-6.51708 c -0.0589,-4.54797 5.4e-4,-6.39407 0.19644,-6.10997 1.12059,1.6247 5.6735,9.9971 6.27258,11.53471 1.09247,2.80399 1.6991,6.13163 1.50219,8.2403 -0.0906,0.96976 -0.27085,1.8694 -0.40065,1.99919 -0.13372,0.13373 -0.8875,-0.29472 -1.73937,-0.98865 z m -17.30573,-8.83093 c -3.86917,-0.98577 -6.00883,-2.26736 -9.73251,-5.82949 -2.12066,-2.02865 -7.44259,-8.31023 -7.22501,-8.52782 0.0527,-0.0527 0.86687,0.15523 1.80936,0.46198 0.94249,0.30675 2.50748,0.75703 3.47775,1.00063 4.63946,1.16477 9.7781,3.97501 12.7787,6.98848 2.21034,2.21982 4.82049,5.75462 4.49192,6.08318 -0.42512,0.42512 -3.63515,0.32369 -5.60021,-0.17696 z m 111.00462,0.26224 c -0.35311,-0.22503 -0.3256,-0.41347 0.20738,-1.42071 0.83077,-1.57002 3.69233,-4.84307 5.35642,-6.12669 3.45183,-2.6626 7.92897,-4.82092 12.48463,-6.01854 1.79127,-0.4709 3.50112,-0.92331 3.79967,-1.00535 0.41426,-0.11384 0.31137,0.0991 -0.43451,0.89908 -0.53752,0.57653 -1.82777,2.20879 -2.86721,3.62725 -2.07068,2.82571 -4.21191,4.83762 -7.58026,7.12244 -2.31246,1.56859 -3.65822,2.12154 -6.76507,2.77964 -2.18797,0.46347 -3.62151,0.51223 -4.20105,0.14288 z m -106.58311,-5.78454 c -1.98399,-2.15238 -3.25943,-7.20672 -2.9587,-11.72472 0.17791,-2.67265 1.47252,-8.90127 2.20321,-10.60006 l 0.46039,-1.07035 1.48496,6.64942 c 1.37767,6.16899 1.48677,6.91415 1.50998,10.31339 0.0255,3.73328 -0.59473,7.28953 -1.3116,7.52062 -0.16328,0.0526 -0.78799,-0.4371 -1.38824,-1.0883 z m 105.39517,0.0135 c -1.29823,-3.57712 -1.33511,-6.80671 -0.1418,-12.41677 0.4604,-2.16446 1.17148,-5.58416 1.58017,-7.59934 l 0.74307,-3.66397 0.71463,2.17124 c 1.43374,4.35605 1.88901,7.46123 1.73097,11.80612 -0.15161,4.16816 -0.50208,5.90485 -1.67571,8.30366 -0.64277,1.31378 -1.76885,2.55253 -2.32035,2.55253 -0.1168,0 -0.40074,-0.51906 -0.63098,-1.15347 z M 250.0467,453.45353 c -3.70392,-1.15111 -7.34742,-3.90279 -9.49747,-7.17276 -1.31693,-2.00288 -6.32331,-11.84856 -6.12543,-12.04643 0.26968,-0.26968 10.13787,6.34263 11.78569,7.89716 1.37833,1.30029 3.7157,4.96532 4.61467,7.23588 0.87221,2.20295 1.30024,4.20241 0.94565,4.41741 -0.12249,0.0743 -0.89789,-0.0748 -1.72311,-0.33126 z m 127.74294,0.31543 c -0.19986,-0.32339 1.26275,-4.61575 2.24117,-6.57721 1.21832,-2.44239 2.84399,-4.46978 4.84859,-6.04671 1.835,-1.44353 9.80193,-6.70932 10.15092,-6.70932 0.11675,0 0.10313,0.28705 -0.0303,0.63788 -0.52309,1.37583 -4.21723,8.57328 -5.47178,10.66091 -2.20195,3.66414 -5.46658,6.27516 -9.64226,7.71181 -1.71858,0.59127 -1.91196,0.62104 -2.09638,0.32264 z m -125.11687,-5.15234 c -0.62956,-1.23327 -1.26137,-4.5285 -1.26137,-6.57873 0,-3.08485 0.66918,-5.79992 2.17865,-8.83947 1.32402,-2.6661 3.74748,-6.71676 4.36402,-7.29417 0.61801,-0.57879 -0.4385,13.79761 -1.24976,17.006 -0.58642,2.31917 -2.78822,6.45274 -3.43714,6.45274 -0.11737,0 -0.38485,-0.33587 -0.5944,-0.74637 z m 122.78693,-0.49306 c -1.40382,-2.21359 -2.45023,-5.11558 -2.85504,-7.91784 -0.46311,-3.20582 -1.05307,-11.94694 -0.92065,-13.64075 l 0.0955,-1.22132 1.71441,2.84975 c 4.26229,7.08493 5.12063,9.7384 4.87257,15.06298 -0.12944,2.77828 -1.00952,5.7935 -1.76263,6.03893 -0.1828,0.0596 -0.69766,-0.46772 -1.14414,-1.17175 z m 20.08915,-14.11757 c 0.013,-0.31617 0.0773,-0.38048 0.16397,-0.16397 0.0784,0.19592 0.0688,0.43001 -0.0214,0.52019 -0.0902,0.0902 -0.15433,-0.0701 -0.14255,-0.35622 z M 244.4648,432.84918 c -3.38414,-2.20393 -5.65863,-5.50027 -6.99756,-10.14133 -0.80008,-2.7733 -2.1933,-9.95042 -1.97412,-10.1696 0.28703,-0.28704 3.9078,2.85108 5.14221,4.45674 2.53143,3.29279 5.28912,8.06963 5.72757,9.92125 0.72205,3.04924 0.74169,6.97667 0.0349,6.97667 -0.18168,0 -1.05153,-0.46968 -1.93299,-1.04373 z m 138.39414,-1.53544 c 0.42286,-6.43739 2.55986,-10.36609 9.15257,-16.82629 2.05087,-2.00963 2.72525,-2.53794 2.59836,-2.03553 -0.0943,0.37318 -0.42761,2.02196 -0.74079,3.66396 -1.83603,9.6263 -3.80221,13.62772 -8.07434,16.43234 -1.12656,0.73958 -2.28611,1.34469 -2.57676,1.34469 -0.49849,0 -0.51885,-0.14628 -0.35904,-2.57917 z m -133.68229,-1.10565 c -0.0845,-0.13781 -0.2397,-0.94247 -0.34487,-1.78814 -0.39391,-3.16732 1.08971,-8.64355 3.1934,-11.78724 1.28563,-1.92122 7.25697,-8.09805 7.25697,-7.50672 0,0.49525 -3.45168,11.2438 -4.09166,12.74145 -1.05684,2.47318 -5.67999,8.88507 -6.01384,8.34065 z m 129.82347,-1.5719 c -1.59281,-2.00171 -3.37153,-4.85505 -4.14831,-6.65451 -1.71599,-3.97524 -4.43756,-12.21916 -4.23476,-12.82755 0.15489,-0.46468 7.0862,6.87368 7.86297,8.32473 1.29894,2.42654 2.15877,5.90806 2.31837,9.3873 0.0939,2.04663 0.0454,3.2122 -0.13834,3.32576 -0.15559,0.0962 -0.90256,-0.60392 -1.65993,-1.55573 z m 3.77335,-14.96045 c -0.70723,-0.85215 -1.06392,-7.66842 -0.54854,-10.4824 0.30231,-1.65067 2.26558,-5.77107 4.36726,-9.16581 1.11173,-1.79571 1.46006,-2.18444 1.65126,-1.84279 0.13328,0.23815 0.31791,2.97211 0.41029,6.07546 0.13948,4.68519 0.091,6.02129 -0.28586,7.87543 -0.72503,3.56731 -1.75018,5.47579 -3.82853,7.12746 -1.17772,0.93594 -1.3066,0.96605 -1.76588,0.41265 z M 245.03421,412.9792 c -2.2713,-1.73059 -3.56714,-4.78641 -3.84826,-9.0749 -0.19179,-2.9257 0.1527,-12.07916 0.45459,-12.07916 0.32369,0 3.69973,5.40533 4.48485,7.18063 0.38062,0.86065 1.00347,2.61986 1.38411,3.90936 0.6122,2.07396 0.67523,2.67346 0.54609,5.19431 -0.18211,3.55468 -0.67891,5.53798 -1.41029,5.63006 -0.28946,0.0364 -1.01445,-0.30569 -1.61109,-0.7603 z m 5.02017,-3.05637 c 0,-3.84792 3.17222,-8.95238 7.44452,-11.97909 2.19272,-1.55343 6.93437,-4.26586 7.26473,-4.15574 0.14462,0.0482 -0.27048,0.81707 -0.92243,1.70859 -0.65195,0.89152 -2.14466,3.02547 -3.31714,4.7421 -3.02752,4.43262 -5.3896,7.17256 -7.88337,9.14448 -1.1906,0.94144 -2.25958,1.71172 -2.37552,1.71172 -0.11593,0 -0.21079,-0.52743 -0.21079,-1.17206 z m 128.21751,0.29443 c -0.73464,-0.48269 -2.43626,-1.93802 -3.78139,-3.23405 -1.92757,-1.85721 -2.84753,-3.0272 -4.34248,-5.52269 -1.04324,-1.74145 -2.66012,-4.13291 -3.59307,-5.31435 -0.93296,-1.18144 -1.69628,-2.21089 -1.69628,-2.28767 0,-0.23925 4.38607,2.04658 6.31719,3.29225 2.20557,1.4227 5.07621,4.27076 6.45671,6.40592 1.16596,1.80333 2.85599,7.53822 2.22146,7.53822 -0.13554,0 -0.8475,-0.39493 -1.58214,-0.87763 z M 249.94831,393.65712 c -1.6587,-3.4696 -1.8249,-6.08976 -0.6963,-10.97676 0.76981,-3.33343 2.71836,-9.13247 2.97906,-8.86593 0.45662,0.46686 2.20742,6.80033 2.44056,8.82865 0.23317,2.02865 0.004,5.51768 -0.49727,7.55363 -0.53144,2.16069 -2.30857,5.4226 -2.95631,5.42625 -0.18098,0.001 -0.75237,-0.88361 -1.26974,-1.96584 z m 127.29539,0.28614 c -1.93777,-3.46505 -1.92775,-3.4195 -1.92763,-8.76754 1.3e-4,-5.19593 0.24733,-6.58185 1.79371,-10.05609 l 0.59774,-1.34292 0.47491,1.08562 c 1.2482,2.85329 3.23194,10.83382 3.23194,13.00199 0,2.14126 -1.97517,7.38441 -2.89575,7.68687 -0.17457,0.0573 -0.74829,-0.66621 -1.27492,-1.60793 z m -122.03263,-0.63441 c 0,-0.86239 1.47501,-3.2763 2.94914,-4.8264 2.75164,-2.89345 7.3838,-5.4899 11.92414,-6.6838 3.86202,-1.01554 3.81833,-0.81001 -0.63132,2.96996 -4.61487,3.92033 -7.68744,6.06732 -11.1011,7.75704 -2.61724,1.2955 -3.14086,1.42606 -3.14086,0.7832 z m 116.8213,-0.3687 c -1.46804,-0.66677 -4.4821,-2.55881 -6.49519,-4.07728 -2.58973,-1.95341 -9.09207,-7.41906 -9.09207,-7.64249 0,-0.27878 2.79713,0.39738 5.8996,1.42614 5.68064,1.88367 10.96488,6.32321 12.1364,10.19639 0.16129,0.53323 0.0878,0.60991 -0.57994,0.6047 -0.42056,-0.003 -1.26152,-0.23163 -1.8688,-0.50746 z M 259.32139,379.2712 c -0.93415,-3.01007 -0.54135,-7.37436 0.93422,-10.37978 1.30665,-2.66134 5.89411,-8.82868 6.28001,-8.44277 0.0961,0.0961 0.17726,2.03497 0.18047,4.3087 0.007,4.69808 -0.33021,6.36857 -1.92111,9.52769 -0.89496,1.77714 -3.64139,5.03129 -4.7459,5.62324 -0.36543,0.19585 -0.5079,0.0711 -0.72769,-0.63708 z m 109.05481,-0.62903 c -3.87997,-3.67234 -4.82588,-6.16453 -5.06576,-13.34686 -0.091,-2.72423 -0.0891,-4.95314 0.004,-4.95314 0.0933,0 1.07518,1.12972 2.18192,2.51049 4.61261,5.75473 5.46171,7.85096 5.28445,13.04622 -0.062,1.81826 -0.24611,3.54127 -0.40906,3.82891 -0.27404,0.48374 -0.42374,0.40231 -1.9958,-1.08562 z m -103.24608,-0.95562 c 1.40717,-1.4574 4.04664,-3.34251 5.63096,-4.02163 2.23525,-0.95814 5.07404,-1.38094 9.2721,-1.38094 2.17075,0 3.94682,0.10368 3.94682,0.2304 0,0.26575 -8.42082,4.13509 -10.72273,4.92706 -2.14905,0.73939 -5.58146,1.35626 -7.54647,1.35626 h -1.65353 z m 95.25036,0.72845 c -1.0449,-0.17832 -2.57156,-0.55001 -3.39256,-0.82598 -1.93056,-0.64893 -10.88837,-4.68142 -11.25439,-5.06633 -0.46872,-0.49289 9.14523,-0.11355 11.11869,0.43871 2.5152,0.70388 5.25328,2.27654 7.19223,4.131 l 1.76413,1.68725 -1.76413,-0.0202 c -0.97027,-0.0111 -2.61906,-0.16611 -3.66397,-0.34443 z m -81.28577,-9.54485 c -1.65495,-0.29586 -2.74143,-0.71173 -2.64534,-1.01256 0.16982,-0.53165 4.0283,-2.34659 5.59998,-2.6341 3.35204,-0.61321 8.27045,-0.096 12.01823,1.2638 2.03392,0.73796 2.82813,1.18281 2.1117,1.18281 -0.21664,0 -2.53105,0.24877 -5.14312,0.55281 -4.76068,0.55415 -10.67042,0.87446 -11.94145,0.64724 z m 59.98049,-0.52537 c -1.56737,-0.20326 -3.50485,-0.44875 -4.30552,-0.54551 -0.80067,-0.0968 -1.35027,-0.27697 -1.22132,-0.40044 0.33451,-0.32031 5.34466,-1.81213 7.37532,-2.19606 2.04641,-0.38691 6.41189,-0.1769 8.22567,0.39572 2.75282,0.86909 4.43063,2.05933 3.79726,2.69377 -0.48137,0.48219 -10.27247,0.51926 -13.87141,0.0525 z m -67.19187,-1.6577 c -0.59287,-3.9535 2.67387,-8.79975 8.59421,-12.74964 1.43228,-0.95558 2.67533,-1.73742 2.76232,-1.73742 0.21596,0 -0.98254,4.41754 -1.67452,6.17212 -1.19746,3.03626 -3.29096,5.66233 -6.35486,7.97151 -2.63532,1.98617 -3.07402,2.03145 -3.32715,0.34343 z m 83.88327,0.66751 c -1.41059,-0.74056 -4.65304,-4.07346 -6.081,-6.25063 -1.10056,-1.67801 -2.54857,-5.57782 -2.90978,-7.83669 l -0.18086,-1.13101 1.64034,1.04965 c 2.87187,1.83771 5.62443,4.30649 7.34013,6.5834 1.89504,2.5149 2.28449,3.62854 2.1711,6.20834 -0.0926,2.10701 -0.30627,2.2556 -1.97993,1.37694 z m -69.25185,-8.22274 c 0.37696,-2.75022 2.14762,-4.87871 5.20357,-6.25517 1.73828,-0.78295 7.94738,-2.62754 8.48745,-2.52144 0.56815,0.11163 -2.24265,3.6029 -4.87969,6.06103 -2.49816,2.32866 -4.84561,3.56596 -7.24951,3.82108 l -1.73864,0.18451 z m 54.18888,0.91798 c -1.63915,-0.3277 -4.21988,-1.62511 -5.62474,-2.82771 -0.6306,-0.53981 -2.13478,-2.22648 -3.34261,-3.74815 -1.20784,-1.52167 -2.42349,-3.01903 -2.70146,-3.32747 -0.50037,-0.55522 -0.49753,-0.55964 0.28654,-0.44456 0.43556,0.0639 0.73993,0.20037 0.67638,0.30321 -0.0636,0.10283 1.43381,0.65269 3.32748,1.2219 5.69635,1.71223 8.06931,3.22134 9.42616,5.99464 0.8836,1.806 0.82696,2.96566 -0.14792,3.02855 -0.37318,0.0241 -1.22811,-0.0661 -1.89983,-0.20041 z m -40.50719,-10.2008 c 0.18659,-0.0753 0.49192,-0.0753 0.67851,0 0.18659,0.0753 0.0339,0.1369 -0.33925,0.1369 -0.37319,0 -0.52585,-0.0616 -0.33926,-0.1369 z"
       style="fill:#eeeeee;fill-opacity:1;stroke-width:0.27140492" />
  </g>
</svg>
