<?xml version="1.0" encoding="UTF-8" standalone="no"?>
<svg
   xmlns:dc="http://purl.org/dc/elements/1.1/"
   xmlns:cc="http://creativecommons.org/ns#"
   xmlns:rdf="http://www.w3.org/1999/02/22-rdf-syntax-ns#"
   xmlns:svg="http://www.w3.org/2000/svg"
   xmlns="http://www.w3.org/2000/svg"
   xmlns:sodipodi="http://sodipodi.sourceforge.net/DTD/sodipodi-0.dtd"
   xmlns:inkscape="http://www.inkscape.org/namespaces/inkscape"
   width="265.0874pt"
   height="216.50192pt"
   viewBox="0 0 194.39742 158.76807"
   version="1.2"
   id="svg1227"
   sodipodi:docname="logo3.svg"
   inkscape:version="0.92.3 (2405546, 2018-03-11)">
  <metadata
     id="metadata1231">
    <rdf:RDF>
      <cc:Work
         rdf:about="">
        <dc:format>image/svg+xml</dc:format>
        <dc:type
           rdf:resource="http://purl.org/dc/dcmitype/StillImage" />
        <dc:title></dc:title>
      </cc:Work>
    </rdf:RDF>
  </metadata>
  <sodipodi:namedview
     pagecolor="#000000"
     bordercolor="#666666"
     borderopacity="1"
     objecttolerance="10"
     gridtolerance="10"
     guidetolerance="10"
     inkscape:pageopacity="0"
     inkscape:pageshadow="2"
     inkscape:window-width="1920"
     inkscape:window-height="951"
     id="namedview1229"
     showgrid="false"
     inkscape:zoom="1.251579"
     inkscape:cx="182.22493"
     inkscape:cy="85.621375"
     inkscape:window-x="0"
     inkscape:window-y="27"
     inkscape:window-maximized="1"
     inkscape:current-layer="surface635"
     fit-margin-top="-0.6"
     fit-margin-left="0"
     fit-margin-right="0"
     fit-margin-bottom="0"
     scale-x="0.55" />
  <defs
     id="defs182" />
  <g
     id="surface635"
     transform="translate(-217.89326,-353.02354)">
    <path
       style="fill:#eeeeee;fill-opacity:1;stroke:#eeeeee;stroke-width:0;stroke-miterlimit:4;stroke-dasharray:none;stroke-opacity:1"
       d="m 295.84074,398.06464 c -0.0301,-1.00013 -0.25146,24.26865 -1.77718,25.79433 -1.70397,1.70399 -2.16254,1.7772 -11.17358,1.7772 -10.63405,0 -12.57542,-0.48723 -14.16049,-3.55242 -1.45829,-2.81994 -1.47918,-11.03742 -0.0353,-14.07983 1.68774,-3.55669 3.55187,-4.29594 11.76366,-4.66474 l 7.41955,-0.3334 v -2.43911 -2.43809 h -6.4164 c -7.91583,0 -13.33083,0.97736 -16.02027,2.89248 -4.4131,3.14237 -6.53391,11.77354 -4.85163,19.74381 0.67909,3.21732 4.28331,7.58501 7.3684,8.92924 1.55309,0.67673 6.29738,0.9604 16.40189,0.98056 18.7457,0.0374 17.51291,0.98538 17.99613,-13.84083 l 0.36195,-11.10475 4.34314,12.51213 4.34315,12.51212 7.72184,0.0152 v -0.0355 l 4.15692,-12.55136 c 3.41723,-9.83381 4.26591,-12.09007 4.57328,-12.09007 0.30737,0 0.55864,5.031 0.55864,11.17949 0,10.73155 0.0645,11.22383 1.609,12.30558 2.25111,1.57674 31.18236,1.66068 34.91436,0.10123 4.17901,-1.74606 6.17918,-6.65372 4.7995,-11.77744 -1.0783,-4.00457 -3.7909,-5.37618 -11.53649,-5.83218 -6.55296,-0.38582 -8.7935,-1.38382 -8.7935,-3.91729 0,-0.73459 0.65143,-1.98711 1.4477,-2.78331 1.28693,-1.28689 2.41264,-1.44773 10.13403,-1.44773 h 8.68729 v -2.97608 -2.97607 l -10.31596,0.27833 c -8.54376,0.23075 -10.71386,0.51776 -12.63704,1.66702 -2.75105,1.64408 -4.20204,4.71592 -4.1209,8.72467 0.12391,6.12418 3.15755,8.29023 12.42264,8.86824 6.23342,0.38885 8.13653,1.25339 8.13653,3.69996 0,0.69172 -0.46253,1.89045 -1.02678,2.66331 -0.91353,1.25124 -2.12237,1.43193 -11.03883,1.64637 -11.37315,0.27361 -14.78743,-0.39977 -16.04684,-3.1639 -0.52537,-1.15306 -0.84287,-6.06605 -0.84287,-13.03635 v -11.18638 h -4.9903 c -4.08322,0 -5.07793,0.23007 -5.47811,1.26673 -0.26895,0.69674 -2.12718,5.98977 -4.12875,11.76271 -2.00157,5.77292 -3.91546,10.539 -4.20954,11.06859 -0.0874,0.98142 -1.30017,-2.3063 -4.86735,-11.58272 l -4.29679,-12.15338 -5.1978,-0.21245 -5.19684,-0.21343 v -0.0611 c 0,-1.47306 0.005,0.20388 0,0.0611 z m -13.93133,7.94082 -1.72113,1.61687 c -0.94664,0.88934 -1.72113,1.88608 -1.72113,2.21485 0,0.32872 0.92122,0.597 2.04668,0.597 1.8707,0 2.0183,-0.18917 1.72113,-2.21388 z m -3.97926,0.0973 c -1.84359,0.0161 -3.34795,1.14484 -2.7705,2.07911 0.76573,1.23905 2.13976,0.95732 3.13933,-0.64319 0.77572,-1.24217 0.72332,-1.44528 -0.36883,-1.43592 z m 5.80268,0.8645 c -0.18675,0.0167 -0.19865,0.36651 -0.19865,1.06317 0,0.79179 0.21745,1.65635 0.48289,1.92176 0.68933,0.68932 2.41251,0.59646 2.41251,-0.12985 0,-0.33643 -0.65141,-1.20113 -1.4477,-1.92178 -0.70083,-0.63416 -1.06231,-0.94994 -1.24905,-0.93333 z m -10.56577,1.80471 c -0.33531,0.0298 -0.60776,0.36945 -1.0799,1.04352 -0.87133,1.24402 -0.83634,1.61573 0.26752,2.83543 1.65083,1.82417 2.39773,1.77112 3.16983,-0.22522 0.49093,-1.26936 0.29147,-1.89546 -0.90286,-2.83543 -0.72168,-0.56796 -1.11929,-0.84809 -1.45459,-0.8183 z m 13.29894,2.40861 c -0.91506,0.0152 -1.94945,0.96952 -2.38501,2.69284 -0.31449,1.24437 -0.0996,1.62868 0.90974,1.62868 2.52653,0 3.40651,-0.74009 3.05673,-2.56989 -0.23041,-1.20531 -0.86978,-1.763 -1.58146,-1.75163 z m -7.46186,0.48389 c -1.09419,0.0137 -1.65368,0.32325 -2.03387,1.03367 -1.04417,1.95101 -0.81503,2.67562 0.95397,3.0164 2.80729,0.54055 4.16184,0.53013 4.17206,-0.0315 0.006,-0.29855 0.19621,-1.23772 0.42388,-2.08599 0.35802,-1.33424 0.0574,-1.58388 -2.23061,-1.85096 -0.4968,-0.058 -0.9207,-0.0859 -1.28543,-0.0817 z m -8.10307,2.10667 c -0.38839,-0.0358 -0.39635,0.37653 -0.39635,1.31396 0,0.931 0.73021,2.19692 1.62867,2.82363 2.22953,1.55528 2.71493,1.48117 2.70954,-0.41603 -0.003,-1.04894 -0.77594,-2.06779 -2.17156,-2.86198 -0.93617,-0.53271 -1.46823,-0.83179 -1.7703,-0.85958 z m 16.07931,2.78527 c -1.61603,0.008 -4.85239,1.94009 -4.88311,3.48357 -0.0152,0.6918 3.64668,-0.1399 4.87522,-1.10742 0.49766,-0.39196 0.90481,-1.13849 0.90481,-1.65917 0,-0.50959 -0.35828,-0.72 -0.89692,-0.71698 z m -9.85177,0.51143 c -0.63829,-0.0343 -0.83303,0.29122 -0.83303,1.12415 0,0.77636 0.21748,1.6288 0.4829,1.89423 0.97524,0.97523 3.10707,0.44251 3.86025,-0.96483 0.58778,-1.09825 0.55037,-1.45117 -0.15542,-1.45854 -0.51169,-0.006 -1.66328,-0.20542 -2.5591,-0.44551 -0.32034,-0.0857 -0.58288,-0.13807 -0.79563,-0.14949 z m -4.09728,2.99771 c -0.34559,-0.0467 -0.12239,0.28472 0.7022,1.19594 1.57679,1.74229 1.93838,1.8588 1.39759,0.44946 -0.21738,-0.56638 -0.92213,-1.23217 -1.56574,-1.47918 -0.24036,-0.0923 -0.41884,-0.15055 -0.53405,-0.16622 z m 11.71746,1.2933 c -0.14096,0.005 -0.38336,0.0662 -0.73075,0.18885 -0.72929,0.25766 -1.95076,0.46911 -2.71447,0.46911 -0.7637,0 -1.38871,0.36032 -1.38871,0.80157 0,0.95559 3.60968,0.21916 4.70509,-0.9599 0.31608,-0.34026 0.36371,-0.50424 0.12878,-0.49963 z m -7.76671,0.298 c -0.34159,-0.0192 -0.41186,0.23351 -0.21048,0.75829 0.46661,1.21598 0.73162,1.29896 1.2864,0.40128 0.2203,-0.35644 -0.0696,-0.82885 -0.64418,-1.04939 -0.17424,-0.0668 -0.31789,-0.10367 -0.43174,-0.11021 z"
       id="path2004"
       inkscape:connector-curvature="0"
       sodipodi:nodetypes="ccsccccccsccccsccccccssccccscscccccscscccscscscccccsccssscccccccscsccccccccccsccccccccccsccccsccsscsccccccccccccssccccccc" />
    <text
       xml:space="preserve"
       style="font-style:normal;font-variant:normal;font-weight:normal;font-stretch:normal;font-size:12.89198971px;line-height:1.25;font-family:'Bree Serif';-inkscape-font-specification:'Bree Serif, Normal';font-variant-ligatures:normal;font-variant-caps:normal;font-variant-numeric:normal;font-feature-settings:normal;text-align:start;letter-spacing:0px;word-spacing:0px;writing-mode:lr-tb;text-anchor:start;fill:#ffffff;fill-opacity:1;stroke:#eeeeee;stroke-width:0;stroke-miterlimit:4;stroke-dasharray:none;stroke-opacity:1"
       x="261.35242"
       y="455.11035"
       id="text2923"><tspan
         sodipodi:role="line"
         id="tspan2921"
         x="261.35242"
         y="455.11035"
         style="font-style:normal;font-variant:normal;font-weight:normal;font-stretch:normal;font-size:12.89198971px;font-family:'Bree Serif';-inkscape-font-specification:'Bree Serif, Normal';font-variant-ligatures:normal;font-variant-caps:normal;font-variant-numeric:normal;font-feature-settings:normal;text-align:start;writing-mode:lr-tb;text-anchor:start;fill:#ffffff;fill-opacity:1;stroke:#eeeeee;stroke-width:0;stroke-miterlimit:4;stroke-dasharray:none;stroke-opacity:1">CMSMUN ALIGANJ</tspan></text>
    <g
       id="g2107"
       transform="matrix(0.55,0,0,0.55,67.591843,264.29135)"
       style="fill:#e3dbdb">
      <g
         id="g2105"
         style="fill:#e3dbdb">
        <path
           id="path2075"
           d="m 569.38574,394.10938 c -10.77441,2.88525 -22.27148,3.81298 -32.73535,7.38134 17.72266,-15.1958 16.71094,-38.70849 28.53516,-56.60595 3.7666,-5.06739 6.87988,-10.37891 11.2705,-15.1875 -7.19238,14.42773 -4.07324,33.14648 -12.33593,47.14746 -3.18067,5.56152 -7.72949,10.95703 -12.75977,15.32519 1.64356,-0.0615 3.08203,-1.48437 4.52735,-2.43457 13.42089,-13.39258 30.9541,-17.13769 45.47168,-28.01855 5.81542,-4.63379 11.1416,-10.70606 13.69824,-17.27344 -2.74707,22.21973 -24.85254,43.0459 -45.67188,49.66602 z"
           inkscape:connector-curvature="0"
           style="fill:#e3dbdb" />
        <path
           id="path2077"
           d="m 617.73535,304.14551 c -6.5664,9.34375 -14.50976,18.04199 -20.57617,27.53808 0.67676,-7.51855 1.56738,-16.76367 -1.36133,-23.88574 -5.07519,-15.33691 -9.53418,-30.90918 -10.97265,-47.74121 l 0.19824,-6.43652 c 3.81933,17.18945 20.70508,29.00586 19.63965,48.28711 0.38671,4.67285 -1.0586,8.6455 -1.9336,12.75488 l 0.29004,0.30371 0.76074,-0.85254 c 2.50391,-9.45801 3.76758,-19.40332 7.66114,-28.22754 5.5332,-12.69824 12.44238,-25.51367 9.62695,-40.8457 8.41602,18.07617 5.86621,42.22754 -3.33301,59.10547 z"
           inkscape:connector-curvature="0"
           style="fill:#e3dbdb" />
        <path
           id="path2079"
           d="m 607.37109,206.75781 c 11.07227,15.00537 13.49903,38.91797 5.43457,56.12989 -3.00586,7.29394 -5.1289,15.0664 -6.30957,23.13964 -0.56347,-1.39257 -0.69238,-3.26464 -1.19531,-4.8164 -4.4043,-16.84766 -20.33789,-28.85449 -26.89062,-44.73877 -2.07813,-5.19434 -3.84961,-10.56153 -4.83203,-16.2002 7.00195,12.9502 24.25781,19.63916 28.96093,33.91065 1.92676,3.60937 1.81836,8.11914 3.01367,12 0.25098,0 0.50196,-0.18653 0.50196,-0.44141 -2.07031,-14.70117 -1.43848,-30.0874 0.55664,-44.60596 -0.11524,-7.86425 -0.88281,-15.49267 -5.25195,-21.58007 2.80175,1.63232 4.06347,4.76757 6.01171,7.20263 z"
           inkscape:connector-curvature="0"
           style="fill:#e3dbdb" />
        <path
           id="path2081"
           d="m 599.56445,203.87744 c 2.90821,13.14893 -1.33984,25.95459 1.33203,39.22998 l -0.0996,0.11426 c -7.15333,-14.06641 -22.33985,-20.70508 -32.78907,-31.96338 -6.05566,-6.68066 -8.68847,-14.82275 -10.20312,-23.44385 5.9873,14.43457 22.14355,17.61524 31.41894,29.77881 3.10352,2.8042 4.11621,6.68897 6.11719,9.86914 l 0.32715,-0.31592 c -5.33399,-11.38671 -7.1211,-24.20117 -10.84277,-36.34521 -1.86329,-5.26221 -5.56153,-10.43262 -10.52344,-13.75049 12.17578,2.48828 22.72851,15.19971 25.26269,26.82666 z"
           inkscape:connector-curvature="0"
           style="fill:#e3dbdb" />
        <path
           id="path2083"
           d="m 567.01172,173.72168 c 9.16992,8.20703 13.31738,18.8335 15.99512,29.84375 l 1.51464,3.49658 c -13.30957,-9.57226 -25.40039,-22.43994 -33.89941,-36.02978 l -10.37988,-10.50098 c 9.125,3.86914 18.96289,6.17871 26.76953,13.19043 z"
           inkscape:connector-curvature="0"
           style="fill:#e3dbdb" />
        <path
           id="path2085"
           d="m 356.80566,162.27393 c -9.20019,8.06543 -15.58105,18.26562 -22.40625,27.77734 -6.11816,7.57519 -13.94433,12.57031 -20.87988,19.08447 3.74414,-7.76172 3.88086,-17.0332 9.19141,-24.16308 7.55664,-13.1836 21.56933,-17.82178 34.09472,-22.69873 z"
           inkscape:connector-curvature="0"
           style="fill:#e3dbdb" />
        <path
           id="path2087"
           d="m 306.49219,190.35986 c 4.47461,-5.5625 10.14746,-9.42822 16.53125,-11.06054 -12.39551,8.51513 -11.58887,23.7749 -15.51856,36.46045 -1.25293,4.69091 -3.42871,9.01269 -4.51269,13.82128 l 0.31543,0.25098 c 2.0625,-5.43603 5.6875,-10.57226 10.21191,-15.00781 8.80371,-8.12695 21.82715,-13.1919 26.1416,-25.21387 -0.19726,16.70606 -14.13379,29.83985 -27.46875,39.22901 -5.49902,4.82421 -10.80175,10.32226 -13.83008,16.52392 -0.29687,-4.21484 0.62305,-8.44678 0.32325,-12.96191 -1.4502,-14.5835 -2.50391,-31.22901 7.80664,-42.04151 z"
           inkscape:connector-curvature="0"
           style="fill:#e3dbdb" />
        <path
           id="path2089"
           d="m 281.41211,240.22754 c -0.37305,-14.77832 5.76074,-26.8418 14.4043,-37.85303 0.25097,-0.12549 0.42968,-0.37646 0.75293,-0.31592 -9.51465,14.4585 -1.64356,32.67041 -2.07715,49.11036 l -1.25489,16.83203 c 0.18653,0.12207 0.18653,0.62793 0.62793,0.43359 0.5625,-1.87598 0.68457,-3.88086 1.06055,-5.81055 2.24121,-13.57714 14.03223,-23.21093 24.33106,-32.59375 2.19921,-2.4541 4.14355,-4.9458 5.27343,-7.82568 -0.84082,6.76025 -2.95996,13.57861 -5.76464,19.83057 -8.01563,15.63183 -22.82325,28.458 -25.52833,46.35449 -1.3125,-17.15039 -12.98925,-29.97266 -11.82519,-48.16211 z"
           inkscape:connector-curvature="0"
           style="fill:#e3dbdb" />
        <path
           id="path2091"
           d="m 274.21387,261.24316 c 1.06543,-4.62207 1.87988,-9.40527 3.8916,-13.64648 -3.81152,19.53711 9.3291,33.61426 13.63965,50.54883 1.80371,6.33398 2.24511,13.13672 4.82422,19.08008 0.24023,0.12988 0.44921,-0.1211 0.59765,-0.31153 -6.41797,-17.98926 2.84668,-34.70605 12.15625,-48.79101 2.26367,-3.81641 3.56836,-8.06641 4.69434,-12.45313 0.98926,8.1416 -1.06934,17.51758 -2.25195,25.97071 -2.26368,10.75585 -5.64258,20.95605 -8.58399,31.39257 -1.93555,6.52149 -1.42676,13.87891 -0.43262,20.71192 L 301.81641,333 c -6.8252,-12.58594 -20.33985,-22.40234 -24.35352,-36.15234 -3.30273,-10.96192 -5.49805,-23.66016 -3.24902,-35.6045 z"
           inkscape:connector-curvature="0"
           style="fill:#e3dbdb" />
        <path
           id="path2093"
           d="m 273.59766,299.40137 c 1.50293,20.70801 23.77148,31.65039 34.09375,48.79394 2.44238,3.50782 4.56152,7.38867 7.82519,10.3252 -0.50976,-2.20606 -2.56836,-4.0625 -3.32422,-6.32227 -3.61133,-7.19043 -4.92773,-15.75879 -4.05957,-24.44922 1,-10.57714 5.43653,-20.39257 3.74317,-31.51757 9.07031,19.55664 6.31543,43.96679 11.38672,65.1582 1.32812,4.63476 4.01074,8.77344 5.76855,13.20312 -18.63574,-12.69238 -44.04687,-24.76855 -52.31445,-48.03027 -3.48438,-8.02051 -3.87305,-17.9502 -3.11914,-27.16113 z"
           inkscape:connector-curvature="0"
           style="fill:#e3dbdb" />
        <path
           id="path2095"
           d="m 284.72949,346.95508 c 10.39063,23.50586 36.41406,25.45312 53.86231,39.7666 3.21093,2.8457 6.57519,5.26562 10.20019,6.9541 l 0.18653,-0.18945 c -4.00586,-3.62207 -8.63965,-7.74707 -11.44434,-12.44141 -10.21191,-14.19922 -6.62012,-34.08984 -14.27148,-49.36133 6.95214,8.31641 13.27441,16.96094 17.47168,26.39551 6.24316,15.40137 8.6289,32.79688 23.07519,44.43897 -15.63379,-5.15235 -33.94922,-3.71289 -47.74805,-13.33936 -15.0664,-9.25976 -28.51269,-24.96582 -31.33203,-42.22363 z"
           inkscape:connector-curvature="0"
           style="fill:#e3dbdb" />
        <path
           id="path2097"
           d="m 311.43457,390.80664 c 16.66016,18.94775 43.88281,12.62549 66.0752,17.58447 3.13476,0.42774 6.0039,1.6836 9.32617,1.17383 -2.64551,-1.67383 -6.31641,-1.49219 -9.2041,-3.01367 -17.39551,-6.11133 -19.94727,-24.94385 -29.39063,-37.64307 12.06445,8.01172 22.20703,18.81739 33.33692,29.2876 8,7.00781 17.62988,10.24219 27.77636,12.30469 -2.43847,0.89062 -5.63476,0.64648 -8.25195,1.33203 -18.22852,4.48242 -38.48047,11.80859 -57.81152,5.25 -12.56739,-3.95703 -25.53321,-13.89453 -31.85645,-26.27588 z"
           inkscape:connector-curvature="0"
           style="fill:#e3dbdb" />
        <path
           id="path2099"
           d="m 537.55664,434.97314 c -18.77344,7.00586 -38.36621,-0.32031 -53.0293,-11.43945 -5.93652,-3.77344 -11.16992,-9.20703 -18.84863,-8.72656 -2.78516,-0.0527 -5.4707,0.084 -7.83789,0.76758 14.24512,6.6289 27.47754,15.76758 39.57617,27.45508 -2.03906,2.32812 -4.67969,4.50585 -7.16699,6.51367 -11.65918,-12.5625 -24.57129,-24.6543 -39.02832,-31.7168 -2.83105,0.36719 -5.52441,2.07031 -8.07715,3.44141 -11.76953,7.4414 -23.40723,17.01367 -32.15723,28.73242 l -7.51855,-6.20899 c 12,-12.13867 25.27344,-21.58789 39.79395,-28.33789 -14.26856,-4.51953 -23.58204,7.4336 -34.41309,13.51368 -12.62109,8.8125 -30.77246,12.95117 -46.02539,6.87109 -8.20313,-3.11133 -16.15039,-7.69336 -22.08984,-15.14063 12.0039,8.26954 29.88183,9.13672 43.5332,3.76563 18.31836,-7.94531 37.35351,-18.01758 59.43652,-13.20117 3.44629,0.0605 6.79492,3.49218 10.05078,0.57031 16.41309,-4.26172 34.99512,-1.33203 49.12598,6.16992 l 14.56445,5.83789 c 13.53711,5.00586 31.03907,3.6211 42.64258,-4.62695 -5.96582,7.42578 -14.11523,12.74609 -22.53125,15.75976 z"
           inkscape:connector-curvature="0"
           style="fill:#e3dbdb" />
        <path
           id="path2101"
           d="m 557.6748,415.57471 c -21.07812,7.95898 -42.2832,-1.81055 -62.47949,-5.07422 l -3.88867,-0.49414 v -0.12305 c 9.65723,-2.19141 19.03125,-5.06641 26.71777,-12.00586 11.32129,-10.88232 21.39551,-22.08349 33.96778,-30.65869 -9.32324,11.9541 -10.31153,28.96924 -25.71289,36.65479 -3.81153,2.49414 -8.62207,2.93554 -12.55567,4.82421 5.60938,0.1211 10.74512,-1.88867 16.29981,-2.45117 20.65234,-3.24219 44.27832,0.084 58.7666,-17.50928 -5.37891,12.25928 -18.84961,22.52491 -31.11524,26.83741 z"
           inkscape:connector-curvature="0"
           style="fill:#e3dbdb" />
        <path
           id="path2103"
           d="m 595.97266,356.26855 c -8.32422,5.44825 -16.76172,10.50098 -24.76075,16.69532 v -0.76074 c 12.25196,-20.36231 6.2627,-48.33497 13.81153,-70.74415 l 2.81543,-7.50683 c -1.5752,13.95996 4.48828,25.78515 4.0625,39.79297 -0.42578,8.46191 -3.1875,15.96484 -7.63086,22.72168 h 0.75293 c 6.00293,-7.88379 10.69043,-16.26856 17.70605,-23.77832 10.88965,-10.50098 21.96094,-21.26856 23.39063,-35.84082 3.69824,24.32714 -9.95215,45.64843 -30.14746,59.42089 z"
           inkscape:connector-curvature="0"
           style="fill:#e3dbdb" />
      </g>
    </g>
  </g>
</svg>
